<svg width="24" height="28" fill="none" xmlns="http://www.w3.org/2000/svg"><rect x="1.183" y="3.5" width="22.267" height="24" rx="1.5" stroke="#000"/><path fill="#000" d="M5.336 20h2.792v3H5.336zm0-5h2.792v3H5.336zm0-5h2.792v3H5.336zm11.168 10h2.792v3h-2.792zm0-10h2.792v3h-2.792zM10.92 20h2.792v3H10.92zm0-5h2.792v3H10.92zm0-5h2.792v3H10.92z"/><rect x="6.267" width="1.861" height="7" rx=".931" fill="#000"/><rect x="17.435" width="1.861" height="7" rx=".931" fill="#000"/><rect x="11.851" width="1.861" height="7" rx=".931" fill="#000"/><path d="M16.504 16.5l1.396 1 2.793-2.5" stroke="#000"/></svg>