<svg width="993" height="884" fill="none" xmlns="http://www.w3.org/2000/svg"><path fill-rule="evenodd" clip-rule="evenodd" d="M2.38 413.969c-17.045-84.796 66.838-166.847 152.585-213.398 79.324-43.063 195.583 9.399 282.618-22.865C541.915 139.03 577.779 7.641 693.44.958c111.296-6.432 232.379 62.72 282.889 145.616 50.381 82.689-31.791 173.96-32.804 264.827-.725 64.986 36.108 126.214 27.724 190.606-10.463 80.363-10.273 172.297-82.018 226.396-72.811 54.904-186.689 60.705-287.646 52.35-94.033-7.781-184.221-43.741-254.284-97.197-62.295-47.528-60.128-126.759-111.748-182.07-67.417-72.238-215.399-99.088-233.174-187.517z" fill="#fff" fill-opacity=".15"/></svg>