<svg width="2247" height="2469" fill="none" xmlns="http://www.w3.org/2000/svg"><path fill-rule="evenodd" clip-rule="evenodd" d="M1155.08 590.747c13.3 89.711 31.35 199.374-15.98 272.359-47.85 73.77-138.48 50.934-209.767 75.737-58.674 20.414-116.031 75.887-173.458 57.596-56.988-18.154-76.431-107.321-122.734-151.949-45.269-43.632-110.53-49.371-145.419-106.507-38.578-63.177-78.007-147.204-58.194-226.937 20.405-82.119 115.93-92.112 155.155-163.267 41.242-74.815 18.94-190.934 73.145-250.876 54.085-59.81 134.786-68.147 202.824-54.301 66.45 13.522 127.209 62.077 167.098 129.577 36.43 61.638 20.14 152.043 42.22 224.612 21.48 70.631 73.98 118.862 85.11 193.956zM717.489 1514.02c91.787-4.19 204.334-11.4 267.738 53.2 64.083 65.31 23.813 168.42 34.663 254.94 8.92 71.21 52.97 145.32 23.65 210.17-29.1 64.35-121.532 75.8-174.884 124.3-52.162 47.42-70.518 123.02-134.095 156.58-70.301 37.12-161.5 72.59-236.946 39.32-77.705-34.27-69.129-147.27-132.284-202.16-66.403-57.71-186.195-46.34-235.296-117.33-48.992-70.84-41.642-166.28-14.687-244.1 26.325-76.01 86.384-140.92 161.237-179.02 68.353-34.8 155.096-4.3 231.537-20.92 74.401-16.18 132.537-71.47 209.367-74.98z" fill="#fff" fill-opacity=".15"/><path fill-rule="evenodd" clip-rule="evenodd" d="M1726.36 582.331c108.09-7.522 240.67-19.37 313.7 60.676 73.8 80.906 23.91 212.097 34.57 321.092 8.77 89.711 58.79 182.231 22.72 264.831-35.8 81.98-144.82 98.68-208.77 161.22-62.52 61.15-85.95 157.07-161.56 201-83.61 48.58-191.77 95.59-279.72 55.41-90.58-41.39-77.75-184.29-150.71-252.07-76.72-71.27-217.93-53.99-273.97-142.45-55.91-88.26-44.942-208.97-11.34-307.898 32.82-96.623 105.06-180.055 194.04-229.992 81.27-45.601 182.57-9.19 272.91-32.044 87.92-22.244 157.66-93.479 248.13-99.775z" fill="#fff" fill-opacity=".15"/><path fill-rule="evenodd" clip-rule="evenodd" d="M2060.63 808.664c-14.12 36.641-30.49 82.152-70.84 88.5-40.78 6.416-80.48-38.112-121.59-58.226-33.83-16.555-75.11-20.356-99.38-49.903-24.09-29.32-13.14-68.25-25.82-102.489-12.38-33.475-43.44-61.805-47.56-95.8-4.56-37.589-4.72-82.79 23.53-102.593 29.09-20.396 78.8 14.66 114.7 5.679 37.75-9.442 53.5-58.922 94.24-57.95 40.66.97 82.63 30.623 113.2 62.9 29.85 31.523 48.79 72.964 53 112.589 3.84 36.184-25.12 61.13-30.93 95.336-5.65 33.292 9.26 71.286-2.55 101.957z" fill="#fff" fill-opacity=".1"/></svg>