<svg width="381" height="773" fill="none" xmlns="http://www.w3.org/2000/svg"><path fill-rule="evenodd" clip-rule="evenodd" d="M285.25 18.368h33.676c23.67 0 42.859 19.19 42.859 42.86v650.544c0 23.671-19.189 42.86-42.859 42.86H61.769c-23.67 0-42.86-19.189-42.86-42.86V61.228c0-23.67 19.19-42.86 42.86-42.86h35.206v12.553c0 8.284 6.716 15 15 15H270.25c8.285 0 15-6.716 15-15V18.368zM.542 61.228C.542 27.413 27.954 0 61.769 0h257.157c33.815 0 61.227 27.413 61.227 61.228v650.544c0 33.815-27.412 61.228-61.227 61.228H61.769C27.954 773 .542 745.587.542 711.772V61.228z" fill="#fff"/></svg>