<svg width="2050" height="1544" fill="none" xmlns="http://www.w3.org/2000/svg"><path fill-rule="evenodd" clip-rule="evenodd" d="M325.157 45.587c70.357-13.813 143.83-70.077 207.761-33.327 63.532 36.52 69.953 137.431 101.465 211.082 32.737 76.514 107.484 147.701 87.172 229.802-20.891 84.437-122.491 94.574-181.173 150.139-45.78 43.347-70.636 113.071-125.055 139.817-57.509 28.265-124.224 35.217-183.313 11.742-58.05-23.062-95.998-83.646-135.271-138.308C58.189 562.872 18.133 508.676 6 440.268-6.531 369.613.43 294.389 28.154 229.813c27.26-63.492 76.082-110.528 130.021-143.986 51.163-31.735 109.771-29.01 166.982-40.24zM1343.48 1140.54c-1.32-64.86-39.95-139.11 2.74-190.363 42.43-50.934 133.26-40.932 203.75-57.542 73.22-17.255 148.25-72.783 218.17-41.886 71.91 31.777 65.09 123.91 105.4 184.871 31.45 47.56 89.64 80.57 104.96 133.25 16.19 55.66 11.97 116.2-18.14 165.21-29.59 48.14-89.45 72.52-144.23 99.01-53.79 26-108.29 53.26-171.08 53.41-64.85.16-130.74-17.77-183.9-52.54-52.27-34.19-86.52-85.03-107.9-138.32-20.27-50.55-8.7-102.36-9.77-155.1z" fill="#fff" fill-opacity=".15"/><path fill-rule="evenodd" clip-rule="evenodd" d="M1413.39 151.135c99.63 5.136 131.34 158.332 210.83 224.823 70.68 59.119 195.63 49.853 227 141.403 31.82 92.887-57.22 181.971-83.69 276.884-21.44 76.888-21.08 157.955-57.07 227.905-42.1 81.82-85.05 178.93-166.52 206.64-81.52 27.73-160.3-45.14-243.22-67.26-88.33-23.55-202.53 10.62-260.12-66.97-57.829-77.93-.38-195.639-9.19-295.898-8.26-93.951-72.088-185.868-40.875-273.749 31.335-88.231 131.945-112.124 198.965-171.365 76.85-67.936 125.53-207.484 223.89-202.413z" fill="#fff" fill-opacity=".15"/></svg>