<svg width="381" height="773" viewBox="0 0 381 773" fill="none" xmlns="http://www.w3.org/2000/svg">
<path fill-rule="evenodd" clip-rule="evenodd" d="M285.25 18.3683H318.926C342.596 18.3683 361.785 37.5571 361.785 61.2277V711.772C361.785 735.443 342.596 754.632 318.926 754.632H61.7692C38.0986 754.632 18.9098 735.443 18.9098 711.772V61.2277C18.9098 37.5571 38.0986 18.3683 61.7692 18.3683H96.9753V30.9209C96.9753 39.2052 103.691 45.9209 111.975 45.9209H270.25C278.535 45.9209 285.25 39.2052 285.25 30.9209V18.3683ZM0.541504 61.2277C0.541504 27.4126 27.9541 0 61.7692 0H318.926C352.741 0 380.153 27.4126 380.153 61.2277V711.772C380.153 745.587 352.741 773 318.926 773H61.7692C27.9541 773 0.541504 745.587 0.541504 711.772V61.2277Z" fill="white"/>
</svg>
