<svg width="29" height="28" viewBox="0 0 29 28" fill="none" xmlns="http://www.w3.org/2000/svg">
<path fill-rule="evenodd" clip-rule="evenodd" d="M15.1904 0.707031L14.4834 0L14.4492 0.0336914L14.416 0L13.709 0.707031L13.7422 0.740723L0 14.4834L0.707031 15.1904L14.4492 1.44775L28.1924 15.1904L28.8994 14.4834L15.1562 0.740723L15.1904 0.707031ZM4 14.707H5V26.707H11V19.707V18.707H12H17H18V19.707V26.707H24V14.707H25V26.707V27.707H24H18H17V26.707V19.707H12V26.707V27.707H11H5H4V26.707V14.707Z" fill="black"/>
<path fill-rule="evenodd" clip-rule="evenodd" d="M23.935 2.70703H23.0654V4.8808H21V5.64167H23.0654V7.70703H23.935V5.64167H26V4.8808H23.935V2.70703Z" fill="black"/>
</svg>
