<svg width="993" height="884" viewBox="0 0 993 884" fill="none" xmlns="http://www.w3.org/2000/svg">
<path fill-rule="evenodd" clip-rule="evenodd" d="M2.37939 413.969C-14.6654 329.173 69.2176 247.122 154.965 200.571C234.289 157.508 350.548 209.97 437.583 177.706C541.915 139.03 577.779 7.64133 693.44 0.957752C804.736 -5.47369 925.819 63.6775 976.329 146.574C1026.71 229.263 944.538 320.534 943.525 411.401C942.8 476.387 979.633 537.615 971.249 602.007C960.786 682.37 960.976 774.304 889.231 828.403C816.42 883.307 702.542 889.108 601.585 880.753C507.552 872.972 417.364 837.012 347.301 783.556C285.006 736.028 287.173 656.797 235.553 601.486C168.136 529.248 20.1545 502.398 2.37939 413.969Z" fill="white" fill-opacity="0.15"/>
</svg>
