<svg width="2050" height="1544" viewBox="0 0 2050 1544" fill="none" xmlns="http://www.w3.org/2000/svg">
<path fill-rule="evenodd" clip-rule="evenodd" d="M325.157 45.5865C395.514 31.7744 468.987 -24.4904 532.918 12.2602C596.45 48.7808 602.871 149.691 634.383 223.342C667.12 299.856 741.867 371.043 721.555 453.144C700.664 537.581 599.064 547.718 540.382 603.283C494.602 646.63 469.746 716.354 415.327 743.1C357.818 771.365 291.103 778.317 232.014 754.842C173.964 731.78 136.016 671.196 96.7428 616.534C58.1886 562.872 18.1336 508.676 6.00079 440.268C-6.53054 369.613 0.429596 294.389 28.1542 229.813C55.4137 166.321 104.236 119.285 158.175 85.8274C209.338 54.0915 267.946 56.8178 325.157 45.5865Z" fill="white" fill-opacity="0.15"/>
<path fill-rule="evenodd" clip-rule="evenodd" d="M1343.48 1140.54C1342.16 1075.68 1303.53 1001.43 1346.22 950.177C1388.65 899.243 1479.48 909.245 1549.97 892.635C1623.19 875.38 1698.22 819.852 1768.14 850.749C1840.05 882.526 1833.23 974.659 1873.54 1035.62C1904.99 1083.18 1963.18 1116.19 1978.5 1168.87C1994.69 1224.53 1990.47 1285.07 1960.36 1334.08C1930.77 1382.22 1870.91 1406.6 1816.13 1433.09C1762.34 1459.09 1707.84 1486.35 1645.05 1486.5C1580.2 1486.66 1514.31 1468.73 1461.15 1433.96C1408.88 1399.77 1374.63 1348.93 1353.25 1295.64C1332.98 1245.09 1344.55 1193.28 1343.48 1140.54Z" fill="white" fill-opacity="0.15"/>
<path fill-rule="evenodd" clip-rule="evenodd" d="M1413.39 151.135C1513.02 156.271 1544.73 309.467 1624.22 375.958C1694.9 435.077 1819.85 425.811 1851.22 517.361C1883.04 610.248 1794 699.332 1767.53 794.245C1746.09 871.133 1746.45 952.2 1710.46 1022.15C1668.36 1103.97 1625.41 1201.08 1543.94 1228.79C1462.42 1256.52 1383.64 1183.65 1300.72 1161.53C1212.39 1137.98 1098.19 1172.15 1040.6 1094.56C982.771 1016.63 1040.22 898.921 1031.41 798.662C1023.15 704.711 959.322 612.794 990.535 524.913C1021.87 436.682 1122.48 412.789 1189.5 353.548C1266.35 285.612 1315.03 146.064 1413.39 151.135Z" fill="white" fill-opacity="0.15"/>
</svg>
