<svg width="2247" height="2469" viewBox="0 0 2247 2469" fill="none" xmlns="http://www.w3.org/2000/svg">
<path fill-rule="evenodd" clip-rule="evenodd" d="M1155.08 590.747C1168.38 680.458 1186.43 790.121 1139.1 863.106C1091.25 936.876 1000.62 914.04 929.333 938.843C870.659 959.257 813.302 1014.73 755.875 996.439C698.887 978.285 679.444 889.118 633.141 844.49C587.872 800.858 522.611 795.119 487.722 737.983C449.144 674.806 409.715 590.779 429.528 511.046C449.933 428.927 545.458 418.934 584.683 347.779C625.925 272.964 603.623 156.845 657.828 96.9025C711.913 37.0937 792.614 28.7565 860.652 42.6017C927.102 56.1237 987.861 104.679 1027.75 172.179C1064.18 233.817 1047.89 324.222 1069.97 396.791C1091.45 467.422 1143.95 515.653 1155.08 590.747Z" fill="white" fill-opacity="0.15"/>
<path fill-rule="evenodd" clip-rule="evenodd" d="M717.489 1514.02C809.276 1509.83 921.823 1502.62 985.227 1567.22C1049.31 1632.53 1009.04 1735.64 1019.89 1822.16C1028.81 1893.37 1072.86 1967.48 1043.54 2032.33C1014.44 2096.68 922.008 2108.13 868.656 2156.63C816.494 2204.05 798.138 2279.65 734.561 2313.21C664.26 2350.33 573.061 2385.8 497.615 2352.53C419.91 2318.26 428.486 2205.26 365.331 2150.37C298.928 2092.66 179.136 2104.03 130.035 2033.04C81.0431 1962.2 88.3933 1866.76 115.348 1788.94C141.673 1712.93 201.732 1648.02 276.585 1609.92C344.938 1575.12 431.681 1605.62 508.122 1589C582.523 1572.82 640.659 1517.53 717.489 1514.02Z" fill="white" fill-opacity="0.15"/>
<path fill-rule="evenodd" clip-rule="evenodd" d="M1726.36 582.331C1834.45 574.809 1967.03 562.961 2040.06 643.007C2113.86 723.913 2063.97 855.104 2074.63 964.099C2083.4 1053.81 2133.42 1146.33 2097.35 1228.93C2061.55 1310.91 1952.53 1327.61 1888.58 1390.15C1826.06 1451.3 1802.63 1547.22 1727.02 1591.15C1643.41 1639.73 1535.25 1686.74 1447.3 1646.56C1356.72 1605.17 1369.55 1462.27 1296.59 1394.49C1219.87 1323.22 1078.66 1340.5 1022.62 1252.04C966.71 1163.78 977.678 1043.07 1011.28 944.142C1044.1 847.519 1116.34 764.087 1205.32 714.15C1286.59 668.549 1387.89 704.96 1478.23 682.106C1566.15 659.862 1635.89 588.627 1726.36 582.331Z" fill="white" fill-opacity="0.15"/>
<path fill-rule="evenodd" clip-rule="evenodd" d="M2060.63 808.664C2046.51 845.305 2030.14 890.816 1989.79 897.164C1949.01 903.58 1909.31 859.052 1868.2 838.938C1834.37 822.383 1793.09 818.582 1768.82 789.035C1744.73 759.715 1755.68 720.785 1743 686.546C1730.62 653.071 1699.56 624.741 1695.44 590.746C1690.88 553.157 1690.72 507.956 1718.97 488.153C1748.06 467.757 1797.77 502.813 1833.67 493.832C1871.42 484.39 1887.17 434.91 1927.91 435.882C1968.57 436.852 2010.54 466.505 2041.11 498.782C2070.96 530.305 2089.9 571.746 2094.11 611.371C2097.95 647.555 2068.99 672.501 2063.18 706.707C2057.53 739.999 2072.44 777.993 2060.63 808.664Z" fill="white" fill-opacity="0.1"/>
</svg>
